<mxfile host="Electron" modified="2023-04-19T07:26:23.793Z" agent="Mozilla/5.0 (Macintosh; Intel Mac OS X 10_15_7) AppleWebKit/537.36 (KHTML, like Gecko) draw.io/21.1.2 Chrome/106.0.5249.199 Electron/21.4.3 Safari/537.36" etag="Q-9dY7bwiuTh7zTO-wSr" version="21.1.2" type="device">
  <diagram name="Page-1" id="tl9Igkx7kZJh_ctri9pq">
    <mxGraphModel dx="1363" dy="1039" grid="1" gridSize="10" guides="1" tooltips="1" connect="1" arrows="1" fold="1" page="1" pageScale="1" pageWidth="827" pageHeight="1169" math="0" shadow="0">
      <root>
        <mxCell id="0" />
        <mxCell id="1" parent="0" />
        <mxCell id="v9qbeWxP79peCxN49SuP-8" value="" style="rounded=0;orthogonalLoop=1;jettySize=auto;html=1;strokeWidth=2;endArrow=none;endFill=0;" edge="1" parent="1" source="v9qbeWxP79peCxN49SuP-1" target="v9qbeWxP79peCxN49SuP-5">
          <mxGeometry relative="1" as="geometry" />
        </mxCell>
        <mxCell id="v9qbeWxP79peCxN49SuP-10" value="" style="rounded=0;orthogonalLoop=1;jettySize=auto;html=1;strokeWidth=2;endArrow=none;endFill=0;" edge="1" parent="1" source="v9qbeWxP79peCxN49SuP-1" target="v9qbeWxP79peCxN49SuP-4">
          <mxGeometry relative="1" as="geometry" />
        </mxCell>
        <mxCell id="v9qbeWxP79peCxN49SuP-19" value="1" style="rounded=0;orthogonalLoop=1;jettySize=auto;html=1;strokeWidth=2;endArrow=none;endFill=0;fontFamily=Ubuntu Mono;fontSize=20;" edge="1" parent="1" source="v9qbeWxP79peCxN49SuP-1" target="v9qbeWxP79peCxN49SuP-17">
          <mxGeometry relative="1" as="geometry" />
        </mxCell>
        <mxCell id="v9qbeWxP79peCxN49SuP-1" value="Author" style="rounded=0;whiteSpace=wrap;html=1;fillColor=#E6E6E6;fontSize=30;fontFamily=Ubuntu Mono;strokeWidth=3;" vertex="1" parent="1">
          <mxGeometry x="200" y="160" width="120" height="40" as="geometry" />
        </mxCell>
        <mxCell id="v9qbeWxP79peCxN49SuP-15" value="" style="rounded=0;orthogonalLoop=1;jettySize=auto;html=1;strokeWidth=2;endArrow=none;endFill=0;" edge="1" parent="1" source="v9qbeWxP79peCxN49SuP-3" target="v9qbeWxP79peCxN49SuP-13">
          <mxGeometry relative="1" as="geometry" />
        </mxCell>
        <mxCell id="v9qbeWxP79peCxN49SuP-16" value="" style="rounded=0;orthogonalLoop=1;jettySize=auto;html=1;strokeWidth=2;endArrow=none;endFill=0;" edge="1" parent="1" source="v9qbeWxP79peCxN49SuP-3" target="v9qbeWxP79peCxN49SuP-12">
          <mxGeometry relative="1" as="geometry" />
        </mxCell>
        <mxCell id="v9qbeWxP79peCxN49SuP-3" value="Books" style="rounded=0;whiteSpace=wrap;html=1;fillColor=#E6E6E6;fontSize=30;fontFamily=Ubuntu Mono;strokeWidth=3;" vertex="1" parent="1">
          <mxGeometry x="520" y="160" width="120" height="40" as="geometry" />
        </mxCell>
        <mxCell id="v9qbeWxP79peCxN49SuP-4" value="ID" style="ellipse;whiteSpace=wrap;html=1;fillColor=#E6E6E6;strokeWidth=3;fontSize=25;fontFamily=Ubuntu Mono;" vertex="1" parent="1">
          <mxGeometry x="215" y="70" width="90" height="50" as="geometry" />
        </mxCell>
        <mxCell id="v9qbeWxP79peCxN49SuP-5" value="Name" style="ellipse;whiteSpace=wrap;html=1;fillColor=#E6E6E6;strokeWidth=3;fontSize=25;fontFamily=Ubuntu Mono;" vertex="1" parent="1">
          <mxGeometry x="70" y="155" width="90" height="50" as="geometry" />
        </mxCell>
        <mxCell id="v9qbeWxP79peCxN49SuP-12" value="Title" style="ellipse;whiteSpace=wrap;html=1;fillColor=#E6E6E6;strokeWidth=3;fontSize=25;fontFamily=Ubuntu Mono;" vertex="1" parent="1">
          <mxGeometry x="680" y="155" width="90" height="50" as="geometry" />
        </mxCell>
        <mxCell id="v9qbeWxP79peCxN49SuP-13" value="Price" style="ellipse;whiteSpace=wrap;html=1;fillColor=#E6E6E6;strokeWidth=3;fontSize=25;fontFamily=Ubuntu Mono;" vertex="1" parent="1">
          <mxGeometry x="535" y="70" width="90" height="50" as="geometry" />
        </mxCell>
        <mxCell id="v9qbeWxP79peCxN49SuP-20" value="" style="rounded=0;orthogonalLoop=1;jettySize=auto;html=1;strokeWidth=2;endArrow=none;endFill=0;" edge="1" parent="1" source="v9qbeWxP79peCxN49SuP-17" target="v9qbeWxP79peCxN49SuP-3">
          <mxGeometry relative="1" as="geometry" />
        </mxCell>
        <mxCell id="v9qbeWxP79peCxN49SuP-21" value="M" style="edgeLabel;html=1;align=center;verticalAlign=middle;resizable=0;points=[];fontFamily=Ubuntu Mono;fontSize=20;" vertex="1" connectable="0" parent="v9qbeWxP79peCxN49SuP-20">
          <mxGeometry x="-0.2951" y="3" relative="1" as="geometry">
            <mxPoint as="offset" />
          </mxGeometry>
        </mxCell>
        <mxCell id="v9qbeWxP79peCxN49SuP-23" value="M" style="edgeStyle=orthogonalEdgeStyle;rounded=0;orthogonalLoop=1;jettySize=auto;html=1;strokeWidth=2;endArrow=none;endFill=0;fontFamily=Ubuntu Mono;fontSize=20;" edge="1" parent="1" source="v9qbeWxP79peCxN49SuP-17" target="v9qbeWxP79peCxN49SuP-22">
          <mxGeometry relative="1" as="geometry" />
        </mxCell>
        <mxCell id="v9qbeWxP79peCxN49SuP-17" value="writes" style="rhombus;whiteSpace=wrap;html=1;strokeWidth=3;fillColor=#E6E6E6;fontSize=17;fontFamily=Ubuntu Mono;" vertex="1" parent="1">
          <mxGeometry x="380" y="140" width="80" height="80" as="geometry" />
        </mxCell>
        <mxCell id="v9qbeWxP79peCxN49SuP-22" value="published&lt;br style=&quot;font-size: 12px;&quot;&gt;by" style="rhombus;whiteSpace=wrap;html=1;strokeWidth=3;fillColor=#E6E6E6;fontSize=12;fontFamily=Ubuntu Mono;" vertex="1" parent="1">
          <mxGeometry x="380" y="310" width="80" height="80" as="geometry" />
        </mxCell>
        <mxCell id="v9qbeWxP79peCxN49SuP-25" value="1" style="rounded=0;orthogonalLoop=1;jettySize=auto;html=1;strokeWidth=2;endArrow=none;endFill=0;fontFamily=Ubuntu Mono;fontSize=20;" edge="1" parent="1" source="v9qbeWxP79peCxN49SuP-24" target="v9qbeWxP79peCxN49SuP-22">
          <mxGeometry relative="1" as="geometry" />
        </mxCell>
        <mxCell id="v9qbeWxP79peCxN49SuP-29" value="" style="rounded=0;orthogonalLoop=1;jettySize=auto;html=1;strokeWidth=2;endArrow=none;endFill=0;" edge="1" parent="1" source="v9qbeWxP79peCxN49SuP-24" target="v9qbeWxP79peCxN49SuP-27">
          <mxGeometry relative="1" as="geometry" />
        </mxCell>
        <mxCell id="v9qbeWxP79peCxN49SuP-30" value="" style="rounded=0;orthogonalLoop=1;jettySize=auto;html=1;strokeWidth=2;endArrow=none;endFill=0;" edge="1" parent="1" source="v9qbeWxP79peCxN49SuP-24" target="v9qbeWxP79peCxN49SuP-28">
          <mxGeometry relative="1" as="geometry" />
        </mxCell>
        <mxCell id="v9qbeWxP79peCxN49SuP-24" value="Publisher" style="rounded=0;whiteSpace=wrap;html=1;fillColor=#E6E6E6;fontSize=30;fontFamily=Ubuntu Mono;strokeWidth=3;" vertex="1" parent="1">
          <mxGeometry x="340" y="480" width="160" height="40" as="geometry" />
        </mxCell>
        <mxCell id="v9qbeWxP79peCxN49SuP-26" value="" style="endArrow=none;dashed=1;html=1;dashPattern=1 3;strokeWidth=2;rounded=0;" edge="1" parent="1">
          <mxGeometry width="50" height="50" relative="1" as="geometry">
            <mxPoint x="60" y="240" as="sourcePoint" />
            <mxPoint x="780" y="240" as="targetPoint" />
          </mxGeometry>
        </mxCell>
        <mxCell id="v9qbeWxP79peCxN49SuP-27" value="Name" style="ellipse;whiteSpace=wrap;html=1;fillColor=#E6E6E6;strokeWidth=3;fontSize=25;fontFamily=Ubuntu Mono;" vertex="1" parent="1">
          <mxGeometry x="210" y="475" width="90" height="50" as="geometry" />
        </mxCell>
        <mxCell id="v9qbeWxP79peCxN49SuP-28" value="Phone" style="ellipse;whiteSpace=wrap;html=1;fillColor=#E6E6E6;strokeWidth=3;fontSize=25;fontFamily=Ubuntu Mono;" vertex="1" parent="1">
          <mxGeometry x="540" y="475" width="90" height="50" as="geometry" />
        </mxCell>
      </root>
    </mxGraphModel>
  </diagram>
</mxfile>
